HIERARCHY
ROOT pelvis
{
  OFFSET 0 100 0
  CHANNELS 6 Xposition Yposition Zposition Zrotation Xrotation Yrotation
  JOINT pelvis_right_femur
  {
    OFFSET -10.78128 -3.44521 -0.5502486
    CHANNELS 3 Zrotation Xrotation Yrotation
    JOINT right_femur_tibia
    {
      OFFSET -0.8047443 -44.0398 -0.1307829
      CHANNELS 3 Zrotation Xrotation Yrotation
      JOINT right_tibia_foot
      {
        OFFSET 3.006224 -47.83518 -5
        CHANNELS 3 Zrotation Xrotation Yrotation
        End Site
        {
          OFFSET 0 -5 15
        }
      }
    }
  }
  JOINT pelvis_left_femur
  {
    OFFSET 10.78128 -3.44521 -0.5502486
    CHANNELS 3 Zrotation Xrotation Yrotation
    JOINT left_femur_tibia
    {
      OFFSET 0.8047443 -44.0398 -0.1307829
      CHANNELS 3 Zrotation Xrotation Yrotation
      JOINT left_tibia_foot
      {
        OFFSET -4.370144 -48.10324 -4.275266
        CHANNELS 3 Zrotation Xrotation Yrotation
        End Site
        {
          OFFSET 0 -5 15
        }
      }
    }
  }
  JOINT pelvis_spine1
  {
    OFFSET 0 6.468898 -3.129235
    CHANNELS 3 Zrotation Xrotation Yrotation
    JOINT spine1
    {
      OFFSET 0 23.15396 4.99043
      CHANNELS 3 Zrotation Xrotation Yrotation
      JOINT spine2
      {
        OFFSET 0 20.79997 -5.064912
        CHANNELS 3 Zrotation Xrotation Yrotation
        JOINT neck
        {
          OFFSET 0 14.38658 9.616178
          CHANNELS 3 Zrotation Xrotation Yrotation
          End Site
          {
            OFFSET 0 20 0
          }
        }
      }
      JOINT right_manubrium
      {
        OFFSET -5.722621 16.35077 3.967754
        CHANNELS 3 Zrotation Xrotation Yrotation
        JOINT right_clavicle
        {
          OFFSET -13.16364 1.694482 -4.693211
          CHANNELS 3 Zrotation Xrotation Yrotation
          JOINT right_humerus
          {
            OFFSET -28.5034 -0.3100689 -2.792744
            CHANNELS 3 Zrotation Xrotation Yrotation
            JOINT right_radius
            {
              OFFSET -25.15693 0.02248979 -1.271978
              CHANNELS 3 Zrotation Xrotation Yrotation
              End Site
              {
                OFFSET -15 0 0
              }
            }
          }
        }
      }
      JOINT left_manubrium
      {
        OFFSET 5.722621 16.35077 3.967754
        CHANNELS 3 Zrotation Xrotation Yrotation
        JOINT left_clavicle
        {
          OFFSET 13.16364 1.694482 -4.693211
          CHANNELS 3 Zrotation Xrotation Yrotation
          JOINT left_humerus
          {
            OFFSET 29.39168 -1.063119 -2.237045
            CHANNELS 3 Zrotation Xrotation Yrotation
            JOINT left_radius
            {
              OFFSET 24.59957 -0.9528479 0.9047498
              CHANNELS 3 Zrotation Xrotation Yrotation
              End Site
              {
                OFFSET 15 -0 -0
              }
            }
          }
        }
      }
    }
  }
}
MOTION
Frames: 8
Frame Time: 0.0416666666667
26.02471 105.0065 229.3037 0.9752431 -5.588765 0.1992268 1.771118 9.889924 6.275411 8.045221e-10 31.40469 -4.551922e-10 5.438266 -10.88081 -1.823323 -2.422681 -16.50904 -8.459481 2.910914e-10 19.43027 1.460188e-10 -6.675162 -11.22227 19.08045 -1.136943 -0.9218009 8.26293 -1.041355 8.95136 -3.158978 2.42772 21.05088 6.069036 1.85819 -17.60401 8.57131 2.120584 -20.96409 11.0053 80.59528 22.38614 -7.27527 3.832948e-11 3.796775e-10 25.6137 -24.35874 13.26334 12.74568 5.23277 -14.9936 -1.394446 -94.00547 21.46186 25.48386 -2.527089e-10 3.920042e-10 -9.786236 -2.299256 8.414632 14.60189
27.2004 105.3159 235.645 1.211391 -5.948959 0.3077078 1.176656 8.935576 6.299869 1.705511e-09 38.34089 -1.025403e-09 5.466003 -8.89819 -2.332091 -3.566068 -13.48842 -9.497873 -6.171328e-11 20.76505 -3.131987e-10 -6.410038 -11.22288 18.86912 -1.40563 -1.22248 7.906864 -1.209426 8.916669 -3.202326 2.469765 21.28975 6.147507 1.877113 -17.46902 8.715723 2.373772 -20.1737 10.8386 81.0562 22.43986 -8.059383 1.316847e-10 4.543397e-10 24.30171 -23.93178 12.90945 12.19777 4.949534 -14.86663 -1.555111 -93.01121 22.00969 24.33382 -4.023619e-10 3.759111e-10 -9.751969 -2.034154 8.668569 14.39257
28.34478 106.0289 241.7623 1.43603 -6.657474 0.7009996 0.6463746 5.953105 6.196876 2.2405e-09 46.07895 -1.518801e-09 5.300067 -7.267961 -3.384333 -4.559514 -9.567944 -10.33691 -4.172731e-10 21.38585 -6.738997e-10 -5.966389 -11.93057 18.45359 -1.764076 -1.097674 7.228014 -1.29554 8.958003 -3.498315 2.472329 21.71278 6.235196 1.782143 -17.16366 8.921969 2.650268 -19.23525 10.74265 82.18044 22.74365 -9.236434 2.289914e-10 4.817655e-10 22.76909 -23.44936 12.82162 11.64238 4.698084 -15.0737 -1.916998 -91.74165 22.70709 22.33826 -5.9487e-10 3.162438e-10 -10.23826 -1.705341 8.903238 14.13555
29.41809 106.9713 247.4295 1.556927 -7.37139 1.357078 0.3708962 1.416256 5.940827 2.089485e-09 52.04179 -1.546676e-09 4.689273 -6.727637 -4.676042 -5.160276 -5.19809 -10.92773 -7.942067e-10 21.10015 -1.170271e-09 -5.406236 -13.00852 17.79513 -2.075617 -0.6648788 6.29126 -1.198545 8.953822 -4.021149 2.421943 22.14472 6.245176 1.56476 -16.76421 9.088822 2.892096 -18.23038 10.66017 83.36509 23.31537 -10.58822 2.927763e-10 4.244414e-10 21.09121 -22.49937 12.90942 10.95719 4.505142 -15.54304 -2.340404 -90.03668 23.49044 19.73965 -7.001018e-10 2.018798e-10 -11.17462 -1.26316 9.219982 13.71293
30.40058 107.9375 252.7016 1.520284 -7.76797 2.200475 0.4402305 -4.076128 5.479624 1.493212e-09 54.68551 -1.242068e-09 3.800227 -6.791581 -5.918277 -5.348115 -0.6463447 -11.24005 -1.048397e-09 20.00971 -1.516876e-09 -5.054958 -14.3732 16.88969 -2.215265 -0.1403823 5.249498 -0.9398444 8.835338 -4.666613 2.37841 22.48628 6.204932 1.306363 -16.45747 9.246968 2.971264 -17.27008 10.54605 84.69675 23.83488 -12.08143 3.192263e-10 3.239676e-10 19.44247 -21.36939 13.08912 10.27406 4.506571 -16.20313 -2.708799 -88.39056 24.08663 16.98791 -7.67654e-10 1.163979e-10 -12.47827 -0.7273126 9.600543 13.12586
31.29569 108.6504 257.7298 1.454257 -7.788761 3.140011 0.6722106 -9.483761 4.887375 8.225275e-10 53.14559 -9.015651e-10 2.967813 -7.154139 -6.855683 -5.273085 3.306511 -11.30674 -1.114524e-09 17.8124 -1.558233e-09 -4.843357 -16.08348 16.19745 -2.285479 0.3512997 4.328121 -0.6048484 8.59641 -5.277733 2.371141 22.70225 6.168338 1.123299 -16.24872 9.371182 2.839121 -16.45378 10.3923 85.8387 24.17833 -13.44553 3.06469e-10 2.237343e-10 17.97523 -20.51585 13.21079 9.758974 4.840455 -16.95458 -2.940643 -86.95719 24.3566 14.23901 -8.149764e-10 1.010712e-10 -14.1098 -0.1534444 9.958659 12.36535
32.07793 108.9135 262.5825 1.373961 -7.494728 4.057197 1.038297 -14.64817 4.312862 1.108855e-10 47.91573 -4.865402e-10 2.159203 -7.759594 -7.464576 -5.076686 6.848147 -11.33868 -1.069202e-09 15.37545 -1.719497e-09 -4.695241 -17.895 15.81022 -2.304876 0.7539373 3.542809 -0.1942074 8.272818 -5.827639 2.390224 22.78549 6.139153 1.04868 -16.13122 9.431742 2.614393 -15.67677 10.21449 86.53556 24.45336 -14.75159 2.466554e-10 1.061367e-10 16.4456 -19.69706 13.16905 9.227697 5.442165 -17.74642 -3.035038 -85.51922 24.40764 11.4297 -7.271306e-10 9.512215e-11 -16.04471 0.4873525 10.33636 11.39858
32.75651 108.6937 267.6289 1.290612 -6.904446 4.864014 1.380191 -18.77771 3.621062 2.286616e-10 40.16187 -7.547038e-10 1.581437 -8.210341 -7.859612 -4.8328 10.00496 -11.11102 -8.543817e-10 13.42344 -1.361126e-09 -4.919373 -19.5541 15.50781 -2.308997 0.8808119 2.947585 0.1965345 7.817455 -6.305331 2.480486 22.87406 6.10391 1.066368 -16.06786 9.46226 2.234234 -14.86531 9.96811 87.45985 24.56041 -16.12096 1.929313e-10 5.117558e-11 14.85844 -19.40019 13.11431 8.885022 6.26343 -18.56637 -2.922016 -84.50575 24.17187 8.594586 -7.289578e-10 1.908319e-10 -18.18945 1.151052 10.65023 10.33893
